# xmcd
#
# Track frame offsets:
#	150
#	9957
#	19893
#	28779
#	39836
#	50696
#	61554
#	72489
#	84116
#	96433
#	107139
#	118329
#	129014
#	139294
#	148401
#	157693
#	168517
#	178339
#	191242
#	203733
#	216382
#	228058
#	239585
#	250680
#	261021
#	272458
#	284619
#	295021
#	307563
#
# Disc length: 4230 seconds
#
# Revision: 1
# Processed by: cddbd v1.5.2PL0 Copyright (c) Steve Scherf et al.
# Submitted via: EZCDAudioConverter 3.1.7.1
#
DISCID=9e10841d
DTITLE=Porter Wagoner - The Thin Man From The West Plains_cd2
DYEAR=195
DGENRE=Country
TTITLE0=Hey, Maw
TTITLE1=How Quick
TTITLE2=I Like Girls
TTITLE3=Itchin' For My Baby
TTITLE4=Eat,Drink And Be Merry
TTITLE5=I'm Stepping Out Tonight
TTITLE6=Let's Squiggle
TTITLE7=Living In The Past
TTITLE8=What Would You Do (If Jesus Came To Your House)
TTITLE9=How Can You Refuse Him Now
TTITLE10=Tryin' To Forget The Blues
TTITLE11=Uncle Pen
TTITLE12=How I've Tried
TTITLE13=I Like Girls
TTITLE14=Trying To Forget The Blues
TTITLE15=I've Known You From Somewhere
TTITLE16=Seeing Her Only Reminded Me Of You
TTITLE17=Midnight
TTITLE18=I Guess I'm Crazy
TTITLE19=Born To Lose
TTITLE20=Ivory Tower
TTITLE21=I Should Be With you
TTITLE22=Would You Be Satisfied
TTITLE23=I'm Day Dreamin' Tonight
TTITLE24=I'll Pretend
TTITLE25=Who Will He Be
TTITLE26=Good Mornin',Neighbor
TTITLE27=My Brand Of Blues
TTITLE28=Thinking Of You
EXTD=
EXTT0=
EXTT1=
EXTT2=
EXTT3=
EXTT4=
EXTT5=
EXTT6=
EXTT7=
EXTT8=
EXTT9=
EXTT10=
EXTT11=
EXTT12=
EXTT13=
EXTT14=
EXTT15=
EXTT16=
EXTT17=
EXTT18=
EXTT19=
EXTT20=
EXTT21=
EXTT22=
EXTT23=
EXTT24=
EXTT25=
EXTT26=
EXTT27=
EXTT28=
PLAYORDER=
